<?xml version="1.0" encoding="UTF-8"?>
<svg width="18px" height="18px" viewBox="0 0 18 18" version="1.1" xmlns="http://www.w3.org/2000/svg" xmlns:xlink="http://www.w3.org/1999/xlink">
    <!-- Generator: Sketch 47.1 (45422) - http://www.bohemiancoding.com/sketch -->
    <title>icons8-facebook</title>
    <desc>Created with Sketch.</desc>
    <defs></defs>
    <g id="home" stroke="none" stroke-width="1" fill="none" fill-rule="evenodd">
        <g id="Home-chuadangnhap-Copy-7" transform="translate(-621.000000, -1172.000000)" fill-rule="nonzero" fill="#FFFFFF">
            <g id="Group-18" transform="translate(601.000000, 1157.000000)">
                <g id="icons8-facebook" transform="translate(20.000000, 15.000000)">
                    <path d="M18,15.5 C18,16.881 16.881,18 15.5,18 L2.5,18 C1.1195,18 0,16.881 0,15.5 L0,2.5 C0,1.119 1.1195,0 2.5,0 L15.5,0 C16.881,0 18,1.119 18,2.5 L18,15.5 Z M14.184,9.5 L14.5,7.5 L12.5,7.5 L12.5,6.3615 C12.5,5.8 12.552,5.5 13.3565,5.5 L14.5,5.5 L14.5,3.5 L12.796,3.5 C10.7295,3.5 10.001,4.541 10,6.295 L10,7.5 L8.5,7.5 L8.5,9.5 L10,9.5 L10,16 L12.5,16 L12.5,9.5 L14.184,9.5 Z" id="Combined-Shape"></path>
                </g>
            </g>
        </g>
    </g>
</svg>